<?xml version="1.0" encoding="UTF-8" standalone="yes"?><svg xmlns="http://www.w3.org/2000/svg" xmlns:xlink="http://www.w3.org/1999/xlink" height="527px" style="width:816px;height:527px;" version="1.1" viewBox="0 0 816 527" width="816px"><defs><filter height="300%" id="f1" width="300%" x="-1" y="-1"><feGaussianBlur result="blurOut" stdDeviation="2.0"/><feColorMatrix in="blurOut" result="blurOut2" type="matrix" values="0 0 0 0 0 0 0 0 0 0 0 0 0 0 0 0 0 0 .4 0"/><feOffset dx="4.0" dy="4.0" in="blurOut2" result="blurOut3"/><feBlend in="SourceGraphic" in2="blurOut3" mode="normal"/></filter></defs><g><line style="stroke: #A80036; stroke-width: 1.0; stroke-dasharray: 5.0,5.0;" x1="60" x2="60" y1="38.0938" y2="489.1406"/><line style="stroke: #A80036; stroke-width: 1.0; stroke-dasharray: 5.0,5.0;" x1="217.5" x2="217.5" y1="38.0938" y2="489.1406"/><line style="stroke: #A80036; stroke-width: 1.0; stroke-dasharray: 5.0,5.0;" x1="353.5" x2="353.5" y1="38.0938" y2="489.1406"/><line style="stroke: #A80036; stroke-width: 1.0; stroke-dasharray: 5.0,5.0;" x1="518.5" x2="518.5" y1="38.0938" y2="489.1406"/><line style="stroke: #A80036; stroke-width: 1.0; stroke-dasharray: 5.0,5.0;" x1="626.5" x2="626.5" y1="38.0938" y2="489.1406"/><rect fill="#FEFECE" filter="url(#f1)" height="30.0938" style="stroke: #A80036; stroke-width: 1.5;" width="85" x="16" y="3"/><text fill="#000000" font-family="sans-serif" font-size="14" lengthAdjust="spacingAndGlyphs" textLength="71" x="23" y="23.125">BLR server</text><rect fill="#FEFECE" filter="url(#f1)" height="30.0938" style="stroke: #A80036; stroke-width: 1.5;" width="85" x="16" y="488.1406"/><text fill="#000000" font-family="sans-serif" font-size="14" lengthAdjust="spacingAndGlyphs" textLength="71" x="23" y="508.2656">BLR server</text><rect fill="#FEFECE" filter="url(#f1)" height="30.0938" style="stroke: #A80036; stroke-width: 1.5;" width="72" x="179.5" y="3"/><text fill="#000000" font-family="sans-serif" font-size="14" lengthAdjust="spacingAndGlyphs" textLength="58" x="186.5" y="23.125">SZ mirror</text><rect fill="#FEFECE" filter="url(#f1)" height="30.0938" style="stroke: #A80036; stroke-width: 1.5;" width="72" x="179.5" y="488.1406"/><text fill="#000000" font-family="sans-serif" font-size="14" lengthAdjust="spacingAndGlyphs" textLength="58" x="186.5" y="508.2656">SZ mirror</text><rect fill="#FEFECE" filter="url(#f1)" height="30.0938" style="stroke: #A80036; stroke-width: 1.5;" width="172" x="265.5" y="3"/><text fill="#000000" font-family="sans-serif" font-size="14" lengthAdjust="spacingAndGlyphs" textLength="158" x="272.5" y="23.125">public shared git projects</text><rect fill="#FEFECE" filter="url(#f1)" height="30.0938" style="stroke: #A80036; stroke-width: 1.5;" width="172" x="265.5" y="488.1406"/><text fill="#000000" font-family="sans-serif" font-size="14" lengthAdjust="spacingAndGlyphs" textLength="158" x="272.5" y="508.2656">public shared git projects</text><rect fill="#FEFECE" filter="url(#f1)" height="30.0938" style="stroke: #A80036; stroke-width: 1.5;" width="130" x="451.5" y="3"/><text fill="#000000" font-family="sans-serif" font-size="14" lengthAdjust="spacingAndGlyphs" textLength="116" x="458.5" y="23.125">private git projects</text><rect fill="#FEFECE" filter="url(#f1)" height="30.0938" style="stroke: #A80036; stroke-width: 1.5;" width="130" x="451.5" y="488.1406"/><text fill="#000000" font-family="sans-serif" font-size="14" lengthAdjust="spacingAndGlyphs" textLength="116" x="458.5" y="508.2656">private git projects</text><rect fill="#FEFECE" filter="url(#f1)" height="30.0938" style="stroke: #A80036; stroke-width: 1.5;" width="58" x="595.5" y="3"/><text fill="#000000" font-family="sans-serif" font-size="14" lengthAdjust="spacingAndGlyphs" textLength="44" x="602.5" y="23.125">shared</text><rect fill="#FEFECE" filter="url(#f1)" height="30.0938" style="stroke: #A80036; stroke-width: 1.5;" width="58" x="595.5" y="488.1406"/><text fill="#000000" font-family="sans-serif" font-size="14" lengthAdjust="spacingAndGlyphs" textLength="44" x="602.5" y="508.2656">shared</text><rect fill="#EEEEEE" filter="url(#f1)" height="3" style="stroke: #EEEEEE; stroke-width: 1.0;" width="808" x="3" y="68.6797"/><line style="stroke: #000000; stroke-width: 1.0;" x1="3" x2="811" y1="68.6797" y2="68.6797"/><line style="stroke: #000000; stroke-width: 1.0;" x1="3" x2="811" y1="71.6797" y2="71.6797"/><rect fill="#EEEEEE" filter="url(#f1)" height="23.1719" style="stroke: #000000; stroke-width: 2.0;" width="161" x="326.5" y="58.0938"/><text fill="#000000" font-family="sans-serif" font-size="13" font-weight="bold" lengthAdjust="spacingAndGlyphs" textLength="142" x="332.5" y="74.625">System configuration</text><polygon fill="#A80036" points="71.5,107.2656,61.5,111.2656,71.5,115.2656,67.5,111.2656" style="stroke: #A80036; stroke-width: 1.0;"/><polygon fill="#A80036" points="205.5,107.2656,215.5,111.2656,205.5,115.2656,209.5,111.2656" style="stroke: #A80036; stroke-width: 1.0;"/><line style="stroke: #A80036; stroke-width: 1.0;" x1="65.5" x2="211.5" y1="111.2656" y2="111.2656"/><text fill="#000000" font-family="sans-serif" font-size="13" lengthAdjust="spacingAndGlyphs" textLength="133" x="77.5" y="107.4688">repo init/repo sync(1:1)</text><polygon fill="#FBFB77" filter="url(#f1)" points="21,125.2188,21,149.2188,255,149.2188,255,135.2188,245,125.2188,21,125.2188" style="stroke: #A80036; stroke-width: 1.0;"/><line style="stroke: #A80036; stroke-width: 1.0;" x1="245" x2="245" y1="125.2188" y2="135.2188"/><line style="stroke: #A80036; stroke-width: 1.0;" x1="255" x2="245" y1="135.2188" y2="135.2188"/><text fill="#000000" font-family="sans-serif" font-size="13" lengthAdjust="spacingAndGlyphs" textLength="205" x="29.25" y="142.4219">1 BLR server sync with 1 SZ mirror.</text><rect fill="#EEEEEE" filter="url(#f1)" height="3" style="stroke: #EEEEEE; stroke-width: 1.0;" width="808" x="3" y="179.7578"/><line style="stroke: #000000; stroke-width: 1.0;" x1="3" x2="811" y1="179.7578" y2="179.7578"/><line style="stroke: #000000; stroke-width: 1.0;" x1="3" x2="811" y1="182.7578" y2="182.7578"/><rect fill="#EEEEEE" filter="url(#f1)" height="23.1719" style="stroke: #000000; stroke-width: 2.0;" width="101" x="356.5" y="169.1719"/><text fill="#000000" font-family="sans-serif" font-size="13" font-weight="bold" lengthAdjust="spacingAndGlyphs" textLength="82" x="362.5" y="185.7031">Initialization</text><polygon fill="#A80036" points="341.5,218.3438,351.5,222.3438,341.5,226.3438,345.5,222.3438" style="stroke: #A80036; stroke-width: 1.0;"/><line style="stroke: #A80036; stroke-width: 1.0;" x1="217.5" x2="347.5" y1="222.3438" y2="222.3438"/><text fill="#000000" font-family="sans-serif" font-size="13" lengthAdjust="spacingAndGlyphs" textLength="75" x="224.5" y="218.5469">git clone(1:1)</text><polygon fill="#FBFB77" filter="url(#f1)" points="127,236.2969,127,260.2969,440,260.2969,440,246.2969,430,236.2969,127,236.2969" style="stroke: #A80036; stroke-width: 1.0;"/><line style="stroke: #A80036; stroke-width: 1.0;" x1="430" x2="430" y1="236.2969" y2="246.2969"/><line style="stroke: #A80036; stroke-width: 1.0;" x1="440" x2="430" y1="246.2969" y2="246.2969"/><text fill="#000000" font-family="sans-serif" font-size="13" lengthAdjust="spacingAndGlyphs" textLength="292" x="133" y="253.5">1 SZ mirror is cloned to 1 public shared git project.</text><rect fill="#EEEEEE" filter="url(#f1)" height="3" style="stroke: #EEEEEE; stroke-width: 1.0;" width="808" x="3" y="290.8359"/><line style="stroke: #000000; stroke-width: 1.0;" x1="3" x2="811" y1="290.8359" y2="290.8359"/><line style="stroke: #000000; stroke-width: 1.0;" x1="3" x2="811" y1="293.8359" y2="293.8359"/><rect fill="#EEEEEE" filter="url(#f1)" height="23.1719" style="stroke: #000000; stroke-width: 2.0;" width="89" x="362.5" y="280.25"/><text fill="#000000" font-family="sans-serif" font-size="13" font-weight="bold" lengthAdjust="spacingAndGlyphs" textLength="70" x="368.5" y="296.7813">Daily work</text><polygon fill="#A80036" points="506.5,329.4219,516.5,333.4219,506.5,337.4219,510.5,333.4219" style="stroke: #A80036; stroke-width: 1.0;"/><line style="stroke: #A80036; stroke-width: 1.0;" x1="353.5" x2="512.5" y1="333.4219" y2="333.4219"/><text fill="#000000" font-family="sans-serif" font-size="13" lengthAdjust="spacingAndGlyphs" textLength="91" x="360.5" y="329.625">git clone(1:n*m)</text><polygon fill="#FBFB77" filter="url(#f1)" points="338,347.375,338,386.375,802,386.375,802,357.375,792,347.375,338,347.375" style="stroke: #A80036; stroke-width: 1.0;"/><line style="stroke: #A80036; stroke-width: 1.0;" x1="792" x2="792" y1="347.375" y2="357.375"/><line style="stroke: #A80036; stroke-width: 1.0;" x1="802" x2="792" y1="357.375" y2="357.375"/><text fill="#000000" font-family="sans-serif" font-size="13" lengthAdjust="spacingAndGlyphs" textLength="443" x="344" y="364.5781">1 public shared git project is used by n user, each user has m work projects.</text><text fill="#000000" font-family="sans-serif" font-size="13" lengthAdjust="spacingAndGlyphs" textLength="368" x="344" y="379.5313">totally, 1 public shared git projects cloned to n*m work projects.</text><polygon fill="#A80036" points="71.5,412.2813,61.5,416.2813,71.5,420.2813,67.5,416.2813" style="stroke: #A80036; stroke-width: 1.0;"/><polygon fill="#A80036" points="506.5,412.2813,516.5,416.2813,506.5,420.2813,510.5,416.2813" style="stroke: #A80036; stroke-width: 1.0;"/><line style="stroke: #A80036; stroke-width: 1.0;" x1="65.5" x2="512.5" y1="416.2813" y2="416.2813"/><text fill="#000000" font-family="sans-serif" font-size="13" lengthAdjust="spacingAndGlyphs" textLength="130" x="77.5" y="412.4844">git pull/git push(1:n*m)</text><polygon fill="#FBFB77" filter="url(#f1)" points="8,430.2344,8,469.2344,572,469.2344,572,440.2344,562,430.2344,8,430.2344" style="stroke: #A80036; stroke-width: 1.0;"/><line style="stroke: #A80036; stroke-width: 1.0;" x1="562" x2="562" y1="430.2344" y2="440.2344"/><line style="stroke: #A80036; stroke-width: 1.0;" x1="572" x2="562" y1="440.2344" y2="440.2344"/><text fill="#000000" font-family="sans-serif" font-size="13" lengthAdjust="spacingAndGlyphs" textLength="453" x="57.25" y="447.4375">each work project is updated by "git pull" from BLR server to the latest version,</text><text fill="#000000" font-family="sans-serif" font-size="13" lengthAdjust="spacingAndGlyphs" textLength="374" x="57.25" y="462.3906">commit for each work project is sent by "git push" to BLR server.</text></g></svg>