<?xml version="1.0" encoding="UTF-8" standalone="yes"?><svg xmlns="http://www.w3.org/2000/svg" xmlns:xlink="http://www.w3.org/1999/xlink" height="173px" style="width:295px;height:173px;" version="1.1" viewBox="0 0 295 173" width="295px"><defs><filter height="300%" id="f1" width="300%" x="-1" y="-1"><feGaussianBlur result="blurOut" stdDeviation="2.0"/><feColorMatrix in="blurOut" result="blurOut2" type="matrix" values="0 0 0 0 0 0 0 0 0 0 0 0 0 0 0 0 0 0 .4 0"/><feOffset dx="4.0" dy="4.0" in="blurOut2" result="blurOut3"/><feBlend in="SourceGraphic" in2="blurOut3" mode="normal"/></filter></defs><g><rect fill="#FEFECE" filter="url(#f1)" height="48" style="stroke: #A80036; stroke-width: 1.5;" width="100" x="94" y="8"/><ellipse cx="109" cy="24" fill="#ADD1B2" rx="11" ry="11" style="stroke: #A80036; stroke-width: 1.0;"/><path d="M112.5781,25.4688 L114.875,26.0469 Q114.2344,28.4844 112.8359,29.5938 Q111.4375,30.7031 109.4063,30.7031 Q107.3281,30.7031 106.0156,29.8516 Q104.7031,29 104.0234,27.3906 Q103.3438,25.7813 103.3438,23.9844 Q103.3438,22 104.1172,20.5 Q104.8906,19 106.3125,18.2188 Q107.7344,17.4375 109.4375,17.4375 Q111.375,17.4375 112.7109,18.4375 Q114.0469,19.4375 114.6719,21.5781 L112.4219,22.1094 Q111.9375,20.5781 111.2266,20.0391 Q110.5156,19.5 109.4063,19.5 Q108.1094,19.5 107.25,20.1094 Q106.3906,20.7188 106.0391,21.7734 Q105.6875,22.8281 105.6875,23.9688 Q105.6875,25.4688 106.1094,26.5391 Q106.5313,27.6094 107.3984,28.125 Q108.2656,28.6406 109.2813,28.6406 Q110.5,28.6406 111.3438,27.9375 Q112.1875,27.2344 112.5781,25.4688 Z "/><text fill="#000000" font-family="sans-serif" font-size="12" lengthAdjust="spacingAndGlyphs" textLength="68" x="123" y="28.3516">RepoProject</text><line style="stroke: #A80036; stroke-width: 1.5;" x1="95" x2="193" y1="40" y2="40"/><line style="stroke: #A80036; stroke-width: 1.5;" x1="95" x2="193" y1="48" y2="48"/><rect fill="#FEFECE" filter="url(#f1)" height="48" style="stroke: #A80036; stroke-width: 1.5;" width="121" x="6" y="116"/><ellipse cx="21" cy="132" fill="#ADD1B2" rx="11" ry="11" style="stroke: #A80036; stroke-width: 1.0;"/><path d="M24.5781,133.4688 L26.875,134.0469 Q26.2344,136.4844 24.8359,137.5938 Q23.4375,138.7031 21.4063,138.7031 Q19.3281,138.7031 18.0156,137.8516 Q16.7031,137 16.0234,135.3906 Q15.3438,133.7813 15.3438,131.9844 Q15.3438,130 16.1172,128.5 Q16.8906,127 18.3125,126.2188 Q19.7344,125.4375 21.4375,125.4375 Q23.375,125.4375 24.7109,126.4375 Q26.0469,127.4375 26.6719,129.5781 L24.4219,130.1094 Q23.9375,128.5781 23.2266,128.0391 Q22.5156,127.5 21.4063,127.5 Q20.1094,127.5 19.25,128.1094 Q18.3906,128.7188 18.0391,129.7734 Q17.6875,130.8281 17.6875,131.9688 Q17.6875,133.4688 18.1094,134.5391 Q18.5313,135.6094 19.3984,136.125 Q20.2656,136.6406 21.2813,136.6406 Q22.5,136.6406 23.3438,135.9375 Q24.1875,135.2344 24.5781,133.4688 Z "/><text fill="#000000" font-family="sans-serif" font-size="12" lengthAdjust="spacingAndGlyphs" textLength="89" x="35" y="136.3516">RepoRepository</text><line style="stroke: #A80036; stroke-width: 1.5;" x1="7" x2="126" y1="148" y2="148"/><line style="stroke: #A80036; stroke-width: 1.5;" x1="7" x2="126" y1="156" y2="156"/><rect fill="#FEFECE" filter="url(#f1)" height="48" style="stroke: #A80036; stroke-width: 1.5;" width="125" x="161" y="116"/><ellipse cx="176" cy="132" fill="#ADD1B2" rx="11" ry="11" style="stroke: #A80036; stroke-width: 1.0;"/><path d="M179.5781,133.4688 L181.875,134.0469 Q181.2344,136.4844 179.8359,137.5938 Q178.4375,138.7031 176.4063,138.7031 Q174.3281,138.7031 173.0156,137.8516 Q171.7031,137 171.0234,135.3906 Q170.3438,133.7813 170.3438,131.9844 Q170.3438,130 171.1172,128.5 Q171.8906,127 173.3125,126.2188 Q174.7344,125.4375 176.4375,125.4375 Q178.375,125.4375 179.7109,126.4375 Q181.0469,127.4375 181.6719,129.5781 L179.4219,130.1094 Q178.9375,128.5781 178.2266,128.0391 Q177.5156,127.5 176.4063,127.5 Q175.1094,127.5 174.25,128.1094 Q173.3906,128.7188 173.0391,129.7734 Q172.6875,130.8281 172.6875,131.9688 Q172.6875,133.4688 173.1094,134.5391 Q173.5313,135.6094 174.3984,136.125 Q175.2656,136.6406 176.2813,136.6406 Q177.5,136.6406 178.3438,135.9375 Q179.1875,135.2344 179.5781,133.4688 Z "/><text fill="#000000" font-family="sans-serif" font-size="12" lengthAdjust="spacingAndGlyphs" textLength="93" x="190" y="136.3516">RepoWorkSpace</text><line style="stroke: #A80036; stroke-width: 1.5;" x1="162" x2="285" y1="148" y2="148"/><line style="stroke: #A80036; stroke-width: 1.5;" x1="162" x2="285" y1="156" y2="156"/><path d="M118.852,66.8204 C110.004,79.0721 100.0617,92.8376 91.2084,105.0961 " fill="none" style="stroke: #A80036; stroke-width: 1.0;"/><polygon fill="#A80036" points="83.4463,115.8436,91.9584,110.8895,86.3738,111.7902,85.473,106.2055,83.4463,115.8436" style="stroke: #A80036; stroke-width: 1.0;"/><line style="stroke: #A80036; stroke-width: 1.0;" x1="86.3738" x2="91.0577" y1="111.7902" y2="105.3047"/><polygon fill="#A80036" points="126.495,56.237,119.7393,58.759,119.469,65.965,126.2247,63.443,126.495,56.237" style="stroke: #A80036; stroke-width: 1.0;"/><path d="M169.47,66.8204 C178.432,79.0721 188.502,92.8376 197.468,105.0961 " fill="none" style="stroke: #A80036; stroke-width: 1.0;"/><polygon fill="#A80036" points="205.33,115.8436,203.2444,106.2181,202.3778,111.8082,196.7877,110.9416,205.33,115.8436" style="stroke: #A80036; stroke-width: 1.0;"/><line style="stroke: #A80036; stroke-width: 1.0;" x1="202.3778" x2="197.655" y1="111.8082" y2="105.351"/><polygon fill="#A80036" points="161.729,56.237,162.0427,63.4413,168.8135,65.9226,168.4998,58.7183,161.729,56.237" style="stroke: #A80036; stroke-width: 1.0;"/></g></svg>