<?xml version="1.0" encoding="UTF-8" standalone="yes"?><svg xmlns="http://www.w3.org/2000/svg" xmlns:xlink="http://www.w3.org/1999/xlink" height="173px" style="width:266px;height:173px;" version="1.1" viewBox="0 0 266 173" width="266px"><defs><filter height="300%" id="f1" width="300%" x="-1" y="-1"><feGaussianBlur result="blurOut" stdDeviation="2.0"/><feColorMatrix in="blurOut" result="blurOut2" type="matrix" values="0 0 0 0 0 0 0 0 0 0 0 0 0 0 0 0 0 0 .4 0"/><feOffset dx="4.0" dy="4.0" in="blurOut2" result="blurOut3"/><feBlend in="SourceGraphic" in2="blurOut3" mode="normal"/></filter></defs><g><rect fill="#FEFECE" filter="url(#f1)" height="48" style="stroke: #A80036; stroke-width: 1.5;" width="85" x="88" y="8"/><ellipse cx="103" cy="24" fill="#ADD1B2" rx="11" ry="11" style="stroke: #A80036; stroke-width: 1.0;"/><path d="M106.5781,25.4688 L108.875,26.0469 Q108.2344,28.4844 106.8359,29.5938 Q105.4375,30.7031 103.4063,30.7031 Q101.3281,30.7031 100.0156,29.8516 Q98.7031,29 98.0234,27.3906 Q97.3438,25.7813 97.3438,23.9844 Q97.3438,22 98.1172,20.5 Q98.8906,19 100.3125,18.2188 Q101.7344,17.4375 103.4375,17.4375 Q105.375,17.4375 106.7109,18.4375 Q108.0469,19.4375 108.6719,21.5781 L106.4219,22.1094 Q105.9375,20.5781 105.2266,20.0391 Q104.5156,19.5 103.4063,19.5 Q102.1094,19.5 101.25,20.1094 Q100.3906,20.7188 100.0391,21.7734 Q99.6875,22.8281 99.6875,23.9688 Q99.6875,25.4688 100.1094,26.5391 Q100.5313,27.6094 101.3984,28.125 Q102.2656,28.6406 103.2813,28.6406 Q104.5,28.6406 105.3438,27.9375 Q106.1875,27.2344 106.5781,25.4688 Z "/><text fill="#000000" font-family="sans-serif" font-size="12" lengthAdjust="spacingAndGlyphs" textLength="53" x="117" y="28.3516">GitProject</text><line style="stroke: #A80036; stroke-width: 1.5;" x1="89" x2="172" y1="40" y2="40"/><line style="stroke: #A80036; stroke-width: 1.5;" x1="89" x2="172" y1="48" y2="48"/><rect fill="#FEFECE" filter="url(#f1)" height="48" style="stroke: #A80036; stroke-width: 1.5;" width="106" x="6" y="116"/><ellipse cx="21" cy="132" fill="#ADD1B2" rx="11" ry="11" style="stroke: #A80036; stroke-width: 1.0;"/><path d="M24.5781,133.4688 L26.875,134.0469 Q26.2344,136.4844 24.8359,137.5938 Q23.4375,138.7031 21.4063,138.7031 Q19.3281,138.7031 18.0156,137.8516 Q16.7031,137 16.0234,135.3906 Q15.3438,133.7813 15.3438,131.9844 Q15.3438,130 16.1172,128.5 Q16.8906,127 18.3125,126.2188 Q19.7344,125.4375 21.4375,125.4375 Q23.375,125.4375 24.7109,126.4375 Q26.0469,127.4375 26.6719,129.5781 L24.4219,130.1094 Q23.9375,128.5781 23.2266,128.0391 Q22.5156,127.5 21.4063,127.5 Q20.1094,127.5 19.25,128.1094 Q18.3906,128.7188 18.0391,129.7734 Q17.6875,130.8281 17.6875,131.9688 Q17.6875,133.4688 18.1094,134.5391 Q18.5313,135.6094 19.3984,136.125 Q20.2656,136.6406 21.2813,136.6406 Q22.5,136.6406 23.3438,135.9375 Q24.1875,135.2344 24.5781,133.4688 Z "/><text fill="#000000" font-family="sans-serif" font-size="12" lengthAdjust="spacingAndGlyphs" textLength="74" x="35" y="136.3516">GitRepository</text><line style="stroke: #A80036; stroke-width: 1.5;" x1="7" x2="111" y1="148" y2="148"/><line style="stroke: #A80036; stroke-width: 1.5;" x1="7" x2="111" y1="156" y2="156"/><rect fill="#FEFECE" filter="url(#f1)" height="48" style="stroke: #A80036; stroke-width: 1.5;" width="110" x="147" y="116"/><ellipse cx="162" cy="132" fill="#ADD1B2" rx="11" ry="11" style="stroke: #A80036; stroke-width: 1.0;"/><path d="M165.5781,133.4688 L167.875,134.0469 Q167.2344,136.4844 165.8359,137.5938 Q164.4375,138.7031 162.4063,138.7031 Q160.3281,138.7031 159.0156,137.8516 Q157.7031,137 157.0234,135.3906 Q156.3438,133.7813 156.3438,131.9844 Q156.3438,130 157.1172,128.5 Q157.8906,127 159.3125,126.2188 Q160.7344,125.4375 162.4375,125.4375 Q164.375,125.4375 165.7109,126.4375 Q167.0469,127.4375 167.6719,129.5781 L165.4219,130.1094 Q164.9375,128.5781 164.2266,128.0391 Q163.5156,127.5 162.4063,127.5 Q161.1094,127.5 160.25,128.1094 Q159.3906,128.7188 159.0391,129.7734 Q158.6875,130.8281 158.6875,131.9688 Q158.6875,133.4688 159.1094,134.5391 Q159.5313,135.6094 160.3984,136.125 Q161.2656,136.6406 162.2813,136.6406 Q163.5,136.6406 164.3438,135.9375 Q165.1875,135.2344 165.5781,133.4688 Z "/><text fill="#000000" font-family="sans-serif" font-size="12" lengthAdjust="spacingAndGlyphs" textLength="78" x="176" y="136.3516">GitWorkSpace</text><line style="stroke: #A80036; stroke-width: 1.5;" x1="148" x2="256" y1="148" y2="148"/><line style="stroke: #A80036; stroke-width: 1.5;" x1="148" x2="256" y1="156" y2="156"/><path d="M106.805,67.2827 C98.8852,79.3296 90.0331,92.7947 82.1194,104.8325 " fill="none" style="stroke: #A80036; stroke-width: 1.0;"/><polygon fill="#A80036" points="74.8806,115.8436,83.167,110.5205,77.6273,111.6656,76.4822,106.1258,74.8806,115.8436" style="stroke: #A80036; stroke-width: 1.0;"/><line style="stroke: #A80036; stroke-width: 1.0;" x1="77.6273" x2="82.022" y1="111.6656" y2="104.9807"/><polygon fill="#A80036" points="114.066,56.237,107.4276,59.0533,107.4741,66.2643,114.1125,63.448,114.066,56.237" style="stroke: #A80036; stroke-width: 1.0;"/><path d="M153.522,67.2827 C161.553,79.3296 170.53,92.7947 178.555,104.8325 " fill="none" style="stroke: #A80036; stroke-width: 1.0;"/><polygon fill="#A80036" points="185.896,115.8436,184.2315,106.1364,183.1223,111.6835,177.5753,110.5743,185.896,115.8436" style="stroke: #A80036; stroke-width: 1.0;"/><line style="stroke: #A80036; stroke-width: 1.0;" x1="183.1223" x2="178.6845" y1="111.6835" y2="105.0269"/><polygon fill="#A80036" points="146.158,56.237,146.1583,63.4481,152.8148,66.2213,152.8145,59.0102,146.158,56.237" style="stroke: #A80036; stroke-width: 1.0;"/></g></svg>