<?xml version="1.0" encoding="UTF-8" standalone="yes"?><svg xmlns="http://www.w3.org/2000/svg" xmlns:xlink="http://www.w3.org/1999/xlink" height="542px" style="width:642px;height:542px;" version="1.1" viewBox="0 0 642 542" width="642px"><defs><filter height="300%" id="f1" width="300%" x="-1" y="-1"><feGaussianBlur result="blurOut" stdDeviation="2.0"/><feColorMatrix in="blurOut" result="blurOut2" type="matrix" values="0 0 0 0 0 0 0 0 0 0 0 0 0 0 0 0 0 0 .4 0"/><feOffset dx="4.0" dy="4.0" in="blurOut2" result="blurOut3"/><feBlend in="SourceGraphic" in2="blurOut3" mode="normal"/></filter></defs><g><line style="stroke: #A80036; stroke-width: 1.0; stroke-dasharray: 5.0,5.0;" x1="60" x2="60" y1="38.0938" y2="504.0938"/><line style="stroke: #A80036; stroke-width: 1.0; stroke-dasharray: 5.0,5.0;" x1="217.5" x2="217.5" y1="38.0938" y2="504.0938"/><line style="stroke: #A80036; stroke-width: 1.0; stroke-dasharray: 5.0,5.0;" x1="356.5" x2="356.5" y1="38.0938" y2="504.0938"/><line style="stroke: #A80036; stroke-width: 1.0; stroke-dasharray: 5.0,5.0;" x1="524.5" x2="524.5" y1="38.0938" y2="504.0938"/><rect fill="#FEFECE" filter="url(#f1)" height="30.0938" style="stroke: #A80036; stroke-width: 1.5;" width="85" x="16" y="3"/><text fill="#000000" font-family="sans-serif" font-size="14" lengthAdjust="spacingAndGlyphs" textLength="71" x="23" y="23.125">BLR server</text><rect fill="#FEFECE" filter="url(#f1)" height="30.0938" style="stroke: #A80036; stroke-width: 1.5;" width="85" x="16" y="503.0938"/><text fill="#000000" font-family="sans-serif" font-size="14" lengthAdjust="spacingAndGlyphs" textLength="71" x="23" y="523.2188">BLR server</text><rect fill="#FEFECE" filter="url(#f1)" height="30.0938" style="stroke: #A80036; stroke-width: 1.5;" width="72" x="179.5" y="3"/><text fill="#000000" font-family="sans-serif" font-size="14" lengthAdjust="spacingAndGlyphs" textLength="58" x="186.5" y="23.125">SZ mirror</text><rect fill="#FEFECE" filter="url(#f1)" height="30.0938" style="stroke: #A80036; stroke-width: 1.5;" width="72" x="179.5" y="503.0938"/><text fill="#000000" font-family="sans-serif" font-size="14" lengthAdjust="spacingAndGlyphs" textLength="58" x="186.5" y="523.2188">SZ mirror</text><rect fill="#FEFECE" filter="url(#f1)" height="30.0938" style="stroke: #A80036; stroke-width: 1.5;" width="178" x="265.5" y="3"/><text fill="#000000" font-family="sans-serif" font-size="14" lengthAdjust="spacingAndGlyphs" textLength="164" x="272.5" y="23.125">private shared git projects</text><rect fill="#FEFECE" filter="url(#f1)" height="30.0938" style="stroke: #A80036; stroke-width: 1.5;" width="178" x="265.5" y="503.0938"/><text fill="#000000" font-family="sans-serif" font-size="14" lengthAdjust="spacingAndGlyphs" textLength="164" x="272.5" y="523.2188">private shared git projects</text><rect fill="#FEFECE" filter="url(#f1)" height="30.0938" style="stroke: #A80036; stroke-width: 1.5;" width="130" x="457.5" y="3"/><text fill="#000000" font-family="sans-serif" font-size="14" lengthAdjust="spacingAndGlyphs" textLength="116" x="464.5" y="23.125">private git projects</text><rect fill="#FEFECE" filter="url(#f1)" height="30.0938" style="stroke: #A80036; stroke-width: 1.5;" width="130" x="457.5" y="503.0938"/><text fill="#000000" font-family="sans-serif" font-size="14" lengthAdjust="spacingAndGlyphs" textLength="116" x="464.5" y="523.2188">private git projects</text><rect fill="#EEEEEE" filter="url(#f1)" height="3" style="stroke: #EEEEEE; stroke-width: 1.0;" width="634" x="3" y="68.6797"/><line style="stroke: #000000; stroke-width: 1.0;" x1="3" x2="637" y1="68.6797" y2="68.6797"/><line style="stroke: #000000; stroke-width: 1.0;" x1="3" x2="637" y1="71.6797" y2="71.6797"/><rect fill="#EEEEEE" filter="url(#f1)" height="23.1719" style="stroke: #000000; stroke-width: 2.0;" width="161" x="239.5" y="58.0938"/><text fill="#000000" font-family="sans-serif" font-size="13" font-weight="bold" lengthAdjust="spacingAndGlyphs" textLength="142" x="245.5" y="74.625">System configuration</text><polygon fill="#A80036" points="71.5,107.2656,61.5,111.2656,71.5,115.2656,67.5,111.2656" style="stroke: #A80036; stroke-width: 1.0;"/><polygon fill="#A80036" points="205.5,107.2656,215.5,111.2656,205.5,115.2656,209.5,111.2656" style="stroke: #A80036; stroke-width: 1.0;"/><line style="stroke: #A80036; stroke-width: 1.0;" x1="65.5" x2="211.5" y1="111.2656" y2="111.2656"/><text fill="#000000" font-family="sans-serif" font-size="13" lengthAdjust="spacingAndGlyphs" textLength="133" x="77.5" y="107.4688">repo init/repo sync(1:1)</text><polygon fill="#FBFB77" filter="url(#f1)" points="21,125.2188,21,149.2188,255,149.2188,255,135.2188,245,125.2188,21,125.2188" style="stroke: #A80036; stroke-width: 1.0;"/><line style="stroke: #A80036; stroke-width: 1.0;" x1="245" x2="245" y1="125.2188" y2="135.2188"/><line style="stroke: #A80036; stroke-width: 1.0;" x1="255" x2="245" y1="135.2188" y2="135.2188"/><text fill="#000000" font-family="sans-serif" font-size="13" lengthAdjust="spacingAndGlyphs" textLength="205" x="29.25" y="142.4219">1 BLR server sync with 1 SZ mirror.</text><rect fill="#EEEEEE" filter="url(#f1)" height="3" style="stroke: #EEEEEE; stroke-width: 1.0;" width="634" x="3" y="179.7578"/><line style="stroke: #000000; stroke-width: 1.0;" x1="3" x2="637" y1="179.7578" y2="179.7578"/><line style="stroke: #000000; stroke-width: 1.0;" x1="3" x2="637" y1="182.7578" y2="182.7578"/><rect fill="#EEEEEE" filter="url(#f1)" height="23.1719" style="stroke: #000000; stroke-width: 2.0;" width="101" x="269.5" y="169.1719"/><text fill="#000000" font-family="sans-serif" font-size="13" font-weight="bold" lengthAdjust="spacingAndGlyphs" textLength="82" x="275.5" y="185.7031">Initialization</text><polygon fill="#A80036" points="344.5,218.3438,354.5,222.3438,344.5,226.3438,348.5,222.3438" style="stroke: #A80036; stroke-width: 1.0;"/><line style="stroke: #A80036; stroke-width: 1.0;" x1="217.5" x2="350.5" y1="222.3438" y2="222.3438"/><text fill="#000000" font-family="sans-serif" font-size="13" lengthAdjust="spacingAndGlyphs" textLength="75" x="224.5" y="218.5469">git clone(1:n)</text><polygon fill="#FBFB77" filter="url(#f1)" points="58,236.2969,58,275.2969,511,275.2969,511,246.2969,501,236.2969,58,236.2969" style="stroke: #A80036; stroke-width: 1.0;"/><line style="stroke: #A80036; stroke-width: 1.0;" x1="501" x2="501" y1="236.2969" y2="246.2969"/><line style="stroke: #A80036; stroke-width: 1.0;" x1="511" x2="501" y1="246.2969" y2="246.2969"/><text fill="#000000" font-family="sans-serif" font-size="13" lengthAdjust="spacingAndGlyphs" textLength="432" x="64" y="253.5">1 SZ mirror is used by n user, each user has one private shared git project.</text><text fill="#000000" font-family="sans-serif" font-size="13" lengthAdjust="spacingAndGlyphs" textLength="331" x="64" y="268.4531">totally, 1 SZ mirror cloned to n private shared git projects.</text><rect fill="#EEEEEE" filter="url(#f1)" height="3" style="stroke: #EEEEEE; stroke-width: 1.0;" width="634" x="3" y="305.7891"/><line style="stroke: #000000; stroke-width: 1.0;" x1="3" x2="637" y1="305.7891" y2="305.7891"/><line style="stroke: #000000; stroke-width: 1.0;" x1="3" x2="637" y1="308.7891" y2="308.7891"/><rect fill="#EEEEEE" filter="url(#f1)" height="23.1719" style="stroke: #000000; stroke-width: 2.0;" width="89" x="275.5" y="295.2031"/><text fill="#000000" font-family="sans-serif" font-size="13" font-weight="bold" lengthAdjust="spacingAndGlyphs" textLength="70" x="281.5" y="311.7344">Daily work</text><polygon fill="#A80036" points="512.5,344.375,522.5,348.375,512.5,352.375,516.5,348.375" style="stroke: #A80036; stroke-width: 1.0;"/><line style="stroke: #A80036; stroke-width: 1.0;" x1="356.5" x2="518.5" y1="348.375" y2="348.375"/><text fill="#000000" font-family="sans-serif" font-size="13" lengthAdjust="spacingAndGlyphs" textLength="79" x="363.5" y="344.5781">git clone(1:m)</text><polygon fill="#FBFB77" filter="url(#f1)" points="248,362.3281,248,401.3281,628,401.3281,628,372.3281,618,362.3281,248,362.3281" style="stroke: #A80036; stroke-width: 1.0;"/><line style="stroke: #A80036; stroke-width: 1.0;" x1="618" x2="618" y1="362.3281" y2="372.3281"/><line style="stroke: #A80036; stroke-width: 1.0;" x1="628" x2="618" y1="372.3281" y2="372.3281"/><text fill="#000000" font-family="sans-serif" font-size="13" lengthAdjust="spacingAndGlyphs" textLength="353" x="254" y="379.5313">1 user has 1 private shared git projects, and m work projects.</text><text fill="#000000" font-family="sans-serif" font-size="13" lengthAdjust="spacingAndGlyphs" textLength="359" x="254" y="394.4844">totally, 1 private shared git projects cloned to m work projects.</text><polygon fill="#A80036" points="71.5,427.2344,61.5,431.2344,71.5,435.2344,67.5,431.2344" style="stroke: #A80036; stroke-width: 1.0;"/><polygon fill="#A80036" points="512.5,427.2344,522.5,431.2344,512.5,435.2344,516.5,431.2344" style="stroke: #A80036; stroke-width: 1.0;"/><line style="stroke: #A80036; stroke-width: 1.0;" x1="65.5" x2="518.5" y1="431.2344" y2="431.2344"/><text fill="#000000" font-family="sans-serif" font-size="13" lengthAdjust="spacingAndGlyphs" textLength="130" x="77.5" y="427.4375">git pull/git push(1:n*m)</text><polygon fill="#FBFB77" filter="url(#f1)" points="8,445.1875,8,484.1875,578,484.1875,578,455.1875,568,445.1875,8,445.1875" style="stroke: #A80036; stroke-width: 1.0;"/><line style="stroke: #A80036; stroke-width: 1.0;" x1="568" x2="568" y1="445.1875" y2="455.1875"/><line style="stroke: #A80036; stroke-width: 1.0;" x1="578" x2="568" y1="455.1875" y2="455.1875"/><text fill="#000000" font-family="sans-serif" font-size="13" lengthAdjust="spacingAndGlyphs" textLength="453" x="60.25" y="462.3906">each work project is updated by "git pull" from BLR server to the latest version,</text><text fill="#000000" font-family="sans-serif" font-size="13" lengthAdjust="spacingAndGlyphs" textLength="374" x="60.25" y="477.3438">commit for each work project is sent by "git push" to BLR server.</text></g></svg>