<?xml version="1.0" encoding="UTF-8" standalone="yes"?><svg xmlns="http://www.w3.org/2000/svg" xmlns:xlink="http://www.w3.org/1999/xlink" height="459px" style="width:511px;height:459px;" version="1.1" viewBox="0 0 511 459" width="511px"><defs><filter height="300%" id="f1" width="300%" x="-1" y="-1"><feGaussianBlur result="blurOut" stdDeviation="2.0"/><feColorMatrix in="blurOut" result="blurOut2" type="matrix" values="0 0 0 0 0 0 0 0 0 0 0 0 0 0 0 0 0 0 .4 0"/><feOffset dx="4.0" dy="4.0" in="blurOut2" result="blurOut3"/><feBlend in="SourceGraphic" in2="blurOut3" mode="normal"/></filter></defs><g><line style="stroke: #A80036; stroke-width: 1.0; stroke-dasharray: 5.0,5.0;" x1="81" x2="81" y1="38.0938" y2="421.2344"/><line style="stroke: #A80036; stroke-width: 1.0; stroke-dasharray: 5.0,5.0;" x1="238.5" x2="238.5" y1="38.0938" y2="421.2344"/><line style="stroke: #A80036; stroke-width: 1.0; stroke-dasharray: 5.0,5.0;" x1="411.5" x2="411.5" y1="38.0938" y2="421.2344"/><rect fill="#FEFECE" filter="url(#f1)" height="30.0938" style="stroke: #A80036; stroke-width: 1.5;" width="85" x="37" y="3"/><text fill="#000000" font-family="sans-serif" font-size="14" lengthAdjust="spacingAndGlyphs" textLength="71" x="44" y="23.125">BLR server</text><rect fill="#FEFECE" filter="url(#f1)" height="30.0938" style="stroke: #A80036; stroke-width: 1.5;" width="85" x="37" y="420.2344"/><text fill="#000000" font-family="sans-serif" font-size="14" lengthAdjust="spacingAndGlyphs" textLength="71" x="44" y="440.3594">BLR server</text><rect fill="#FEFECE" filter="url(#f1)" height="30.0938" style="stroke: #A80036; stroke-width: 1.5;" width="72" x="200.5" y="3"/><text fill="#000000" font-family="sans-serif" font-size="14" lengthAdjust="spacingAndGlyphs" textLength="58" x="207.5" y="23.125">SZ mirror</text><rect fill="#FEFECE" filter="url(#f1)" height="30.0938" style="stroke: #A80036; stroke-width: 1.5;" width="72" x="200.5" y="420.2344"/><text fill="#000000" font-family="sans-serif" font-size="14" lengthAdjust="spacingAndGlyphs" textLength="58" x="207.5" y="440.3594">SZ mirror</text><rect fill="#FEFECE" filter="url(#f1)" height="30.0938" style="stroke: #A80036; stroke-width: 1.5;" width="130" x="344.5" y="3"/><text fill="#000000" font-family="sans-serif" font-size="14" lengthAdjust="spacingAndGlyphs" textLength="116" x="351.5" y="23.125">private git projects</text><rect fill="#FEFECE" filter="url(#f1)" height="30.0938" style="stroke: #A80036; stroke-width: 1.5;" width="130" x="344.5" y="420.2344"/><text fill="#000000" font-family="sans-serif" font-size="14" lengthAdjust="spacingAndGlyphs" textLength="116" x="351.5" y="440.3594">private git projects</text><rect fill="#EEEEEE" filter="url(#f1)" height="3" style="stroke: #EEEEEE; stroke-width: 1.0;" width="503" x="3" y="68.6797"/><line style="stroke: #000000; stroke-width: 1.0;" x1="3" x2="506" y1="68.6797" y2="68.6797"/><line style="stroke: #000000; stroke-width: 1.0;" x1="3" x2="506" y1="71.6797" y2="71.6797"/><rect fill="#EEEEEE" filter="url(#f1)" height="23.1719" style="stroke: #000000; stroke-width: 2.0;" width="161" x="174" y="58.0938"/><text fill="#000000" font-family="sans-serif" font-size="13" font-weight="bold" lengthAdjust="spacingAndGlyphs" textLength="142" x="180" y="74.625">System configuration</text><polygon fill="#A80036" points="92.5,107.2656,82.5,111.2656,92.5,115.2656,88.5,111.2656" style="stroke: #A80036; stroke-width: 1.0;"/><polygon fill="#A80036" points="226.5,107.2656,236.5,111.2656,226.5,115.2656,230.5,111.2656" style="stroke: #A80036; stroke-width: 1.0;"/><line style="stroke: #A80036; stroke-width: 1.0;" x1="86.5" x2="232.5" y1="111.2656" y2="111.2656"/><text fill="#000000" font-family="sans-serif" font-size="13" lengthAdjust="spacingAndGlyphs" textLength="133" x="98.5" y="107.4688">repo init/repo sync(1:1)</text><polygon fill="#FBFB77" filter="url(#f1)" points="42,125.2188,42,149.2188,276,149.2188,276,135.2188,266,125.2188,42,125.2188" style="stroke: #A80036; stroke-width: 1.0;"/><line style="stroke: #A80036; stroke-width: 1.0;" x1="266" x2="266" y1="125.2188" y2="135.2188"/><line style="stroke: #A80036; stroke-width: 1.0;" x1="276" x2="266" y1="135.2188" y2="135.2188"/><text fill="#000000" font-family="sans-serif" font-size="13" lengthAdjust="spacingAndGlyphs" textLength="205" x="50.25" y="142.4219">1 BLR server sync with 1 SZ mirror.</text><rect fill="#EEEEEE" filter="url(#f1)" height="3" style="stroke: #EEEEEE; stroke-width: 1.0;" width="503" x="3" y="179.7578"/><line style="stroke: #000000; stroke-width: 1.0;" x1="3" x2="506" y1="179.7578" y2="179.7578"/><line style="stroke: #000000; stroke-width: 1.0;" x1="3" x2="506" y1="182.7578" y2="182.7578"/><rect fill="#EEEEEE" filter="url(#f1)" height="23.1719" style="stroke: #000000; stroke-width: 2.0;" width="101" x="204" y="169.1719"/><text fill="#000000" font-family="sans-serif" font-size="13" font-weight="bold" lengthAdjust="spacingAndGlyphs" textLength="82" x="210" y="185.7031">Initialization</text><polygon fill="#A80036" points="249.5,218.3438,239.5,222.3438,249.5,226.3438,245.5,222.3438" style="stroke: #A80036; stroke-width: 1.0;"/><polygon fill="#A80036" points="399.5,218.3438,409.5,222.3438,399.5,226.3438,403.5,222.3438" style="stroke: #A80036; stroke-width: 1.0;"/><line style="stroke: #A80036; stroke-width: 1.0;" x1="243.5" x2="405.5" y1="222.3438" y2="222.3438"/><text fill="#000000" font-family="sans-serif" font-size="13" lengthAdjust="spacingAndGlyphs" textLength="149" x="255.5" y="218.5469">repo init/repo sync(1:n*m)</text><polygon fill="#FBFB77" filter="url(#f1)" points="149,236.2969,149,275.2969,497,275.2969,497,246.2969,487,236.2969,149,236.2969" style="stroke: #A80036; stroke-width: 1.0;"/><line style="stroke: #A80036; stroke-width: 1.0;" x1="487" x2="487" y1="236.2969" y2="246.2969"/><line style="stroke: #A80036; stroke-width: 1.0;" x1="497" x2="487" y1="246.2969" y2="246.2969"/><text fill="#000000" font-family="sans-serif" font-size="13" lengthAdjust="spacingAndGlyphs" textLength="327" x="155" y="253.5">1 SZ mirror is used by n user, each user has m projects,</text><text fill="#000000" font-family="sans-serif" font-size="13" lengthAdjust="spacingAndGlyphs" textLength="255" x="155" y="268.4531">totally, 1 SZ mirror sync with n * m projects.</text><rect fill="#EEEEEE" filter="url(#f1)" height="3" style="stroke: #EEEEEE; stroke-width: 1.0;" width="503" x="3" y="305.7891"/><line style="stroke: #000000; stroke-width: 1.0;" x1="3" x2="506" y1="305.7891" y2="305.7891"/><line style="stroke: #000000; stroke-width: 1.0;" x1="3" x2="506" y1="308.7891" y2="308.7891"/><rect fill="#EEEEEE" filter="url(#f1)" height="23.1719" style="stroke: #000000; stroke-width: 2.0;" width="89" x="210" y="295.2031"/><text fill="#000000" font-family="sans-serif" font-size="13" font-weight="bold" lengthAdjust="spacingAndGlyphs" textLength="70" x="216" y="311.7344">Daily work</text><polygon fill="#A80036" points="92.5,344.375,82.5,348.375,92.5,352.375,88.5,348.375" style="stroke: #A80036; stroke-width: 1.0;"/><polygon fill="#A80036" points="399.5,344.375,409.5,348.375,399.5,352.375,403.5,348.375" style="stroke: #A80036; stroke-width: 1.0;"/><line style="stroke: #A80036; stroke-width: 1.0;" x1="86.5" x2="405.5" y1="348.375" y2="348.375"/><text fill="#000000" font-family="sans-serif" font-size="13" lengthAdjust="spacingAndGlyphs" textLength="130" x="98.5" y="344.5781">git pull/git push(1:n*m)</text><polygon fill="#FBFB77" filter="url(#f1)" points="8,362.3281,8,401.3281,482,401.3281,482,372.3281,472,362.3281,8,362.3281" style="stroke: #A80036; stroke-width: 1.0;"/><line style="stroke: #A80036; stroke-width: 1.0;" x1="472" x2="472" y1="362.3281" y2="372.3281"/><line style="stroke: #A80036; stroke-width: 1.0;" x1="482" x2="472" y1="372.3281" y2="372.3281"/><text fill="#000000" font-family="sans-serif" font-size="13" lengthAdjust="spacingAndGlyphs" textLength="453" x="14" y="379.5313">each work project is updated by "git pull" from BLR server to the latest version,</text><text fill="#000000" font-family="sans-serif" font-size="13" lengthAdjust="spacingAndGlyphs" textLength="374" x="14" y="394.4844">commit for each work project is sent by "git push" to BLR server.</text></g></svg>